<?xml version="1.0" encoding="utf-8"?>
<!-- Generator: Adobe Illustrator 19.0.0, SVG Export Plug-In . SVG Version: 6.00 Build 0)  -->
<svg version="1.1" xmlns="http://www.w3.org/2000/svg" xmlns:xlink="http://www.w3.org/1999/xlink" x="0px" y="0px"
	 viewBox="0 0 612 834" style="enable-background:new 0 0 612 834;" xml:space="preserve">
<style type="text/css">
	.st0{fill:#FFFFFF;stroke:#000000;stroke-width:6;stroke-miterlimit:10;}
</style>
<g id="switch">
	<rect id="XMLID_2_" x="451" y="695" class="st0" width="118" height="139"/>
</g>
<g id="Layer_1">
	<rect id="XMLID_1_" y="757" class="st0" width="612" height="77"/>
</g>
<g id="Layer_3">
	<rect id="XMLID_3_" x="113" y="713" class="st0" width="226" height="44"/>
</g>
<g id="light">
	<polygon id="XMLID_8_" class="st0" points="226,125 553,168 407,417 204,150 	"/>
</g>
<g id="Layer_4">
	<polygon id="XMLID_4_" class="st0" points="85.9,430 29,430.6 0,381.6 27.9,332 84.9,331.4 113.9,380.4 	"/>
	<polygon id="XMLID_5_" class="st0" points="243.9,190 187,190.6 158,141.6 185.9,92 242.9,91.4 271.9,140.4 	"/>
</g>
<g id="Layer_5">
	<polygon id="XMLID_7_" class="st0" points="196,713 52,430.6 85.9,430 99.8,405.3 256,713 	"/>
	<polygon id="XMLID_6_" class="st0" points="56.9,331.7 174,168.6 187,190.6 214.9,190.6 101.4,359.3 84.9,331.4 	"/>
</g>
</svg>
